{"title":"Eurovision Song Contest 2012 Sweden Loreen Euphoria 1080i MPEG2","uid":7305382,"size":882275728,"categoryP":"video","categoryS":"hd___tv_shows","magnet":"?xt=urn:btih:a468e51d007609244cd2096cb5222933191d0017&amp;dn=Eurovision+Song+Contest+2012+Sweden+Loreen+Euphoria+1080i+MPEG2+&amp;tr=udp%3A%2F%2Ftracker.openbittorrent.com%3A80&amp;tr=udp%3A%2F%2Fopen.demonii.com%3A1337&amp;tr=udp%3A%2F%2Ftracker.coppersurfer.tk%3A6969&amp;tr=udp%3A%2F%2Fexodus.desync.com%3A6969","seeders":1,"leechers":0,"uploader":"multi7","files":-1,"time":1338178648,"description":"Eurovision Song Contest 2012 Sweden Loreen Euphoria 1080i MPEG2 36Mbps [mixman].ts\n    Format : MPEG-TS\n    File size : 841 MiB\n    Duration : 3mn 11s\n    Overall bit rate : 36.8 Mbps\n \n Video #1001\n    ID : 1001 (0x3E9)\n    Menu ID : 1 (0x1)\n    Format : MPEG Video\n    Format version : Version 2\n    Format profile : Main@High\n    Format settings, BVOP : Yes\n    Format settings, Matrix : Default\n    Format settings, GOP : M=3, N=12\n    Codec ID : 2\n    Duration : 3mn 11s\n    Bit rate : 34.6 Mbps\n    Maximum bit rate : 35.5 Mbps\n    Width : 1 920 pixels\n    Height : 1 080 pixels\n    Display aspect ratio : 16:9\n    Frame rate : 25.000 fps\n    Color space : YUV\n    Chroma subsampling : 4:2:0\n    Bit depth : 8 bits\n    Scan type : Interlaced\n    Scan order : Top Field First\n    Compression mode : Lossy\n    Bits/(Pixel*Frame) : 0.667\n    Stream size : 790 MiB (94%)\n    Color primaries : BT.709\n    Transfer characteristics : BT.709\n    Matrix coefficients : BT.709\n \n Audio #1002\n    ID : 1002 (0x3EA)\n    Menu ID : 1 (0x1)\n    Format : MPEG Audio\n    Format version : Version 1\n    Format profile : Layer 2\n    Codec ID : 3\n    Duration : 3mn 11s\n    Bit rate mode : Constant\n    Bit rate : 384 Kbps\n    Channel(s) : 2 channels\n    Sampling rate : 48.0 KHz\n    Compression mode : Lossy\n    Stream size : 8.78 MiB (1%)\n","torrent":{"xt":"urn:btih:a468e51d007609244cd2096cb5222933191d0017","amp;dn":"Eurovision+Song+Contest+2012+Sweden+Loreen+Euphoria+1080i+MPEG2+","amp;tr":["udp%3A%2F%2Ftracker.openbittorrent.com%3A80","udp%3A%2F%2Fopen.demonii.com%3A1337","udp%3A%2F%2Ftracker.coppersurfer.tk%3A6969","udp%3A%2F%2Fexodus.desync.com%3A6969"],"infoHash":"a468e51d007609244cd2096cb5222933191d0017","infoHashBuffer":{"type":"Buffer","data":[164,104,229,29,0,118,9,36,76,210,9,108,181,34,41,51,25,29,0,23]},"announce":[],"urlList":[]}}